<svg xmlns="http://www.w3.org/2000/svg" width="373" height="133" viewBox="0 0 373 133" fill="none"><path d="M0.906616 0H21.0466L30.3566 102.22H30.7366L40.6166 0H63.4166L73.2966 102.22H73.6766L82.9866 0H101.037L87.5466 133H61.5166L52.0166 43.32H51.6366L42.1366 133H14.3966L0.906616 0Z" fill="currentColor"></path><path d="M250.583 0H271.483V114H305.873V133H250.583V0Z" fill="currentColor"></path><path d="M311.715 114.38L350.475 19H313.615V0H372.895V18.62L334.135 114H372.895V133H311.715V114.38Z" fill="currentColor"></path><path d="M125.161 0H153.471L175.131 133H154.231L150.431 106.59L138.651 23.18H138.271L127 106.59L122.881 133H103.501L125.161 0Z" fill="currentColor"></path><path d="M185.27 0H206.17V114H240.56V133H185.27V0Z" fill="currentColor"></path></svg>
